<?xml version="1.0" encoding="utf-8"?>
<!-- Generator: Adobe Illustrator 19.0.0, SVG Export Plug-In . SVG Version: 6.00 Build 0)  -->
<svg version="1.1" id="Layer_1" xmlns="http://www.w3.org/2000/svg" xmlns:xlink="http://www.w3.org/1999/xlink" x="0px" y="0px"
	 viewBox="0 0 314 314" style="enable-background:new 0 0 314 314;" xml:space="preserve">
<path d="M158.1,201c1.3-1.5,2.2-2.7,3.3-3.7c35.5-35.5,71-71.1,106.6-106.5c2.2-2.2,5.2-3.9,8.2-4.7c4.6-1.2,9.6,1.6,12,5.8
	c2.4,4.3,2,9.5-1,13.4c-0.9,1.1-1.9,2-2.8,3c-38.7,38.7-77.4,77.4-116.1,116.1c-7.4,7.4-13.5,7.4-20.9,0
	c-38.9-38.9-77.8-77.7-116.5-116.7c-2.2-2.2-4-5.2-4.8-8.2c-1.3-4.6,1.5-9.6,5.7-12c4.2-2.4,9.5-2.1,13.4,0.9c1.2,0.9,2.2,2,3.3,3.1
	c35.4,35.4,70.9,70.8,106.3,106.3C155.6,198.6,156.6,199.5,158.1,201z"/>
</svg>
